<svg display="none" xmlns="http://www.w3.org/2000/svg">
    <symbol id="step_1" viewBox="0 0 50 50">
        <g>
            <path class="st0" d="M48.2,10c-1.1-1.1-2.7-1.8-4.3-1.8c-1.6,0-3.1,0.6-4.3,1.8L36,13.6V1.7c0-0.7-0.6-1.3-1.3-1.3H12.1
                c-0.4,0-0.7,0.1-1,0.4L0.4,11.5c-0.3,0.3-0.4,0.6-0.4,1v36.2C0,49.4,0.6,50,1.4,50h33.3c0.7,0,1.3-0.6,1.3-1.3V30.7l12.2-12.2
                c1.1-1.1,1.8-2.7,1.8-4.3C50,12.7,49.4,11.1,48.2,10 M23.3,38.3l-4.5,1.2l1.2-4.5L23.3,38.3z M25.9,37.1l-4.8-4.8l17.1-17.1L43,20
                L25.9,37.1z M10.8,5v6.2H4.6L10.8,5z M33.3,47.3H2.7V13.8h9.4c0.7,0,1.3-0.6,1.3-1.3V3.1h19.9v13.2L18.3,31.4c0,0,0,0,0,0
                c-0.2,0.2-0.3,0.4-0.4,0.6l-2.4,9c-0.1,0.5,0,1,0.4,1.3c0.3,0.3,0.6,0.4,1,0.4c0.1,0,0.2,0,0.3,0l9-2.4c0.2-0.1,0.5-0.2,0.6-0.4
                c0,0,0,0,0,0l6.5-6.5V47.3z M46.3,16.7l-1.4,1.4l-4.8-4.8l1.4-1.4c0.6-0.6,1.5-1,2.4-1c0.9,0,1.7,0.3,2.4,1c0.6,0.6,1,1.5,1,2.4
                C47.3,15.2,47,16,46.3,16.7"/>
            <path class="st0" d="M11.4,40.1H7.5c-0.7,0-1.3,0.6-1.3,1.3c0,0.7,0.6,1.3,1.3,1.3h3.9c0.7,0,1.3-0.6,1.3-1.3
                C12.8,40.7,12.2,40.1,11.4,40.1"/>
            <path class="st0" d="M12.1,34.7H7.5c-0.7,0-1.3,0.6-1.3,1.3c0,0.7,0.6,1.3,1.3,1.3h4.6c0.7,0,1.3-0.6,1.3-1.3
                C13.5,35.3,12.9,34.7,12.1,34.7"/>
            <path class="st0" d="M13.5,29.3H7.5c-0.7,0-1.3,0.6-1.3,1.3c0,0.7,0.6,1.3,1.3,1.3h5.9c0.7,0,1.3-0.6,1.3-1.3
                C14.8,29.9,14.2,29.3,13.5,29.3"/>
            <path class="st0" d="M7.5,26.6h9.8c0.7,0,1.3-0.6,1.3-1.3c0-0.7-0.6-1.3-1.3-1.3H7.5c-0.7,0-1.3,0.6-1.3,1.3
                C6.2,26,6.8,26.6,7.5,26.6"/>
            <path class="st0" d="M7.5,21.2h15.3c0.7,0,1.3-0.6,1.3-1.3c0-0.7-0.6-1.3-1.3-1.3H7.5c-0.7,0-1.3,0.6-1.3,1.3
                C6.2,20.6,6.8,21.2,7.5,21.2"/>
            <path class="st0" d="M17.5,15.9h11.6c0.7,0,1.3-0.6,1.3-1.3c0-0.7-0.6-1.3-1.3-1.3H17.5c-0.7,0-1.3,0.6-1.3,1.3
                C16.1,15.2,16.7,15.9,17.5,15.9"/>
            <path class="st0" d="M17.5,10.5h11.6c0.7,0,1.3-0.6,1.3-1.3c0-0.7-0.6-1.3-1.3-1.3H17.5c-0.7,0-1.3,0.6-1.3,1.3
                C16.1,9.9,16.7,10.5,17.5,10.5"/>
        </g>
    </symbol>

     <symbol id="step_2" viewBox="0 0 50 50">
        <g>
            <path class="st0" d="M43.4,28.5l-9.7-8.6c-0.5-0.5-1.3-0.4-1.8,0.1c-0.5,0.5-0.4,1.3,0.1,1.8l8.6,7.7L32,37.1
                c-0.5,0.5-0.6,1.3-0.1,1.8c0.3,0.3,0.6,0.4,1,0.4c0.3,0,0.6-0.1,0.9-0.3l9.7-8.6c0.3-0.2,0.4-0.6,0.4-1
                C43.8,29.1,43.6,28.7,43.4,28.5"/>
            <path class="st0" d="M18.1,19.9c-0.5-0.5-1.3-0.6-1.8-0.1l-9.7,8.6c-0.3,0.2-0.4,0.6-0.4,1c0,0.4,0.2,0.7,0.4,1l9.7,8.6
                c0.2,0.2,0.5,0.3,0.9,0.3c0.4,0,0.7-0.1,1-0.4c0.5-0.5,0.4-1.3-0.1-1.8l-8.6-7.7l8.6-7.7C18.6,21.3,18.6,20.5,18.1,19.9"/>
            <path class="st0" d="M28.1,19.2c-0.7-0.2-1.4,0.2-1.6,0.9l-5.4,17.8c-0.2,0.7,0.2,1.4,0.9,1.6c0.1,0,0.2,0.1,0.4,0.1
                c0.6,0,1.1-0.4,1.2-0.9l5.4-17.8C29.1,20.1,28.7,19.4,28.1,19.2"/>
            <path class="st0" d="M48.7,0H1.3C0.6,0,0,0.6,0,1.3v47.4C0,49.4,0.6,50,1.3,50h47.4c0.7,0,1.3-0.6,1.3-1.3V1.3
                C50,0.6,49.4,0,48.7,0 M47.4,7.7h-5.1V2.6h5.1V7.7z M10.3,2.6h29.5v5.1H10.3V2.6z M2.6,2.6h5.1v5.1H2.6V2.6z M2.6,10.3h44.9v37.2
                H2.6V10.3z"/>
        </g>
    </symbol>

    <!-- STEPS -->

    <symbol id="step_01" viewBox="0 0 74 74">
        <g>
            <g id="Слой_1">
                <circle fill="#2CD3B8" class="st0" cx="37" cy="37" r="37"/>
            </g>
            <g id="Слой_2">
                <path fill="#ffffff" class="st1" d="M41.8,37.5c3.5,0,6.4-2.8,6.4-6.3c0-3.4-2.9-6.2-6.4-6.2s-6.4,2.8-6.4,6.2C35.4,34.7,38.3,37.5,41.8,37.5z
                    M27.5,34.4v-4.7h-3.2v4.7h-4.8v3.1h4.8v4.7h3.2v-4.7h4.8v-3.1H27.5z M41.8,40.6c-4.3,0-12.7,2-12.7,6.2V50h25.5v-3.1
                    C54.5,42.7,46.1,40.6,41.8,40.6z"/>
            </g>
        </g>
    </symbol>

    <symbol id="step_02" viewBox="0 0 74 74">
        <g>
            <g id="Слой_1">
	            <circle fill="#2CD3B8" class="st0" cx="37" cy="37" r="37"/>
            </g>
            <g id="Слой_3">
                <path fill="#ffffff" class="st1" d="M47.1,25.5L32.6,39.8l-5.6-5.5l-4.4,4.4l10.1,9.9l18.9-18.6L47.1,25.5z"/>
            </g>
        </g>
    </symbol>

    <symbol id="step_03" viewBox="0 0 74 74">
        <g>
            <g id="Слой_1">
	            <circle fill="#2CD3B8" class="st0" cx="37" cy="37" r="37"/>
            </g>
            <g id="Слой_4">
                <path fill="#ffffff" class="st1" d="M54.9,35c-0.1-0.5-0.6-0.9-1.2-0.9c-1.6,0-3.1-1-3.7-2.5c-0.6-1.5-0.2-3.3,1-4.5c0.4-0.4,0.4-0.9,0.1-1.4
                c-0.8-1.1-1.8-2-2.9-2.9c-0.4-0.3-1-0.3-1.4,0.1c-1.1,1.2-3,1.6-4.5,1c-1.5-0.7-2.5-2.2-2.4-3.9c0-0.5-0.4-1-0.9-1.1
                c-1.3-0.2-2.7-0.2-4,0c-0.5,0.1-0.9,0.5-0.9,1c0.1,1.7-0.9,3.2-2.5,3.8c-1.5,0.6-3.4,0.2-4.5-1c-0.4-0.4-0.9-0.4-1.4-0.1
                c-1.1,0.8-2.1,1.8-2.9,2.9c-0.3,0.4-0.3,1,0.1,1.4c1.3,1.1,1.7,2.9,1,4.5c-0.6,1.5-2.2,2.4-3.9,2.4c-0.6,0-1,0.4-1,0.9
                c-0.2,1.4-0.2,2.7,0,4.1c0.1,0.5,0.7,0.9,1.2,0.9c1.6,0,3.1,0.9,3.7,2.5c0.6,1.5,0.2,3.3-1,4.5c-0.4,0.4-0.4,0.9-0.1,1.4
                c0.8,1.1,1.8,2,2.8,2.9c0.4,0.3,1,0.3,1.4-0.1c1.1-1.2,3-1.6,4.5-1c1.6,0.6,2.5,2.2,2.4,3.9c0,0.5,0.4,1,0.9,1.1
                C35.6,55,36.3,55,37,55c0.7,0,1.3,0,2-0.1c0.5-0.1,0.9-0.5,0.9-1c-0.1-1.7,0.9-3.2,2.5-3.8c1.5-0.6,3.4-0.2,4.5,1
                c0.4,0.4,0.9,0.4,1.4,0.1c1.1-0.8,2.1-1.8,2.9-2.9c0.3-0.4,0.3-1-0.1-1.4c-1.3-1.1-1.7-2.9-1-4.5C50.5,41,52,40,53.6,40l0.2,0
                c0.5,0,1-0.4,1.1-0.9C55,37.7,55,36.4,54.9,35z M37,47.4c-5.7,0-10.4-4.6-10.4-10.4S31.3,26.6,37,26.6S47.4,31.3,47.4,37
                c0,1.9-0.5,3.8-1.5,5.3l-4.5-4.5c0.3-0.8,0.5-1.6,0.5-2.5c0-1.7-0.7-3.3-1.9-4.5c-1.2-1.2-2.8-1.9-4.5-1.9c-0.6,0-1.1,0.1-1.7,0.2
                c-0.2,0.1-0.4,0.3-0.5,0.5c-0.1,0.2,0,0.5,0.2,0.7c0,0,2.2,2.3,3,3c0.1,0.1,0.1,0.3,0.1,0.3l0,0c-0.1,0.8-0.2,1.8-0.3,2.2
                c0,0,0,0,0,0c0,0,0,0,0,0.1c-0.4,0.1-1.4,0.3-2.2,0.3l0,0l0,0c0,0,0,0,0,0c-0.1,0-0.2,0-0.3-0.1c-0.8-0.8-2.9-2.9-2.9-2.9
                c-0.2-0.2-0.4-0.2-0.5-0.2c-0.3,0-0.6,0.2-0.7,0.5c-0.6,2.2,0,4.6,1.6,6.2c1.2,1.2,2.8,1.9,4.5,1.9c0.9,0,1.7-0.2,2.5-0.5l4.6,4.6
                C41,46.8,39.1,47.4,37,47.4z"/>
            </g>
        </g>
    </symbol>

    <symbol id="step_04" viewBox="0 0 74 74">
        <g>
            <g id="Слой_1">
	            <circle fill="#2CD3B8" class="st0" cx="37" cy="37" r="37"/>
            </g>
            <g id="Слой_3">
                <path fill="#ffffff" class="st1" d="M57,26.3l-0.3,2.5c-0.1,0.8-0.2,1.6-0.4,2.4l-0.1,0.5c-0.4,2.3-0.7,4.2-1.1,5.9c-0.4,1.9-0.9,4-1.5,6.1
                    c-0.4,1.2-0.7,2.2-1.1,3.1c-0.2,0.6-0.5,1.1-0.7,1.6c-0.3,0.5-0.6,1-1.1,1.6c-0.2,0.3-0.5,0.5-0.8,0.7c-0.2,0.2-0.6,0.3-1.1,0.4
                    c-0.4,0.1-0.8,0-1.1-0.1c-0.3-0.1-0.6-0.3-0.9-0.5c-0.6-0.5-1-1-1.3-1.4c-0.4-0.5-0.7-1.1-0.9-1.5c-0.6-1.1-1-2.2-1.4-3
                    c-0.4-1-0.8-2.1-1.2-3c-0.2-0.6-0.4-1.2-0.6-1.8c-0.5-1.4-1-2.8-1.5-4.1c-0.4-1.1-0.8-1.9-1.2-2.6c0-0.1-0.1-0.2-0.2-0.3
                    c0,0,0-0.1-0.1-0.1c0,0,0-0.1-0.1-0.1c-0.9-1.3-2-1.2-2.8,0.9c-0.2,0.4-0.3,0.8-0.5,1.3L34.5,36c-0.4,1.1-0.7,2.1-1.1,3
                    c-0.5,1.2-0.9,2-1.4,2.8c-0.5,0.7-1.1,1.7-2,2.4c-0.5,0.4-0.9,0.6-1.4,0.8c-0.5,0.2-1,0.2-1.6,0.1c-0.5-0.1-0.9-0.3-1.4-0.5
                    c-0.4-0.2-0.8-0.5-1.1-0.9c-0.6-0.6-1.2-1.3-1.7-2.2c-0.5-0.7-0.9-1.5-1.3-2.3c-0.8-1.7-1.5-3.4-1.9-4.6c-1.1-3.1-1.9-5.9-2.4-8
                    c0-0.1,0-0.2-0.1-0.2c0-0.1,0-0.2,0.1-0.3c0.1-0.1,0.2-0.1,0.3-0.1c0,0,0.1,0,0.1,0c0.1,0,0.2,0.1,0.2,0.3c0.8,2.1,1.6,4.5,3,7.4
                    c0.7,1.5,1.4,2.9,2.2,4.2c0.4,0.7,0.9,1.4,1.3,2c0.6,0.7,1,1.2,1.5,1.6c0.6,0.5,1.1,0.7,1.6,0.8c0.5,0,0.9-0.2,1.4-0.6
                    c0.5-0.5,1-1.2,1.3-1.8c0.4-0.7,0.7-1.5,1.1-2.4c0.3-0.8,0.6-1.7,0.9-2.7l0.5-1.5c0.2-0.5,0.4-1,0.6-1.5c0.2-0.6,0.5-1.1,0.7-1.6
                    c0,0,0,0,0,0c0,0,0,0,0,0c0,0,0,0,0,0l0,0c0.2-0.5,0.6-1,1-1.5c0.2-0.3,0.5-0.5,0.8-0.7c0.3-0.3,0.7-0.4,1.1-0.5
                    c0.4-0.1,0.8-0.1,1.2,0c0.3,0.1,0.7,0.3,1,0.5c0.6,0.5,1,1,1.3,1.4c0.3,0.4,0.6,0.9,0.9,1.5c0.6,1.1,1,2.1,1.4,3
                    c0.1,0.1,0.1,0.3,0.2,0.4c0.6,1.4,1.1,2.8,1.6,4.2l0.5,1.3c0.7,1.8,1.4,3.8,2.3,5.5c0.2,0.5,0.5,0.8,0.6,1.1c1.1,1.7,1.8,0.2,2-0.2
                    c0.2-0.3,0.4-0.7,0.6-1.2c0.3-0.8,0.7-1.6,1-2.7c0.6-1.7,1.1-3.7,1.6-5.7c0.5-1.9,0.9-3.8,1.3-5.7l0.1-0.4c0.2-0.8,0.4-1.6,0.5-2.4
                    l0.5-2.3l0-0.2c0.1-0.4,0.5-0.7,0.9-0.7c0.5,0,0.9,0.4,0.9,0.9c0,0,0,0,0,0L57,26.3z"/>
            </g>
        </g>
    </symbol>

    <symbol id="step_05" viewBox="0 0 74 74">
        <g>
            <g id="Слой_1">
	            <circle fill="#2CD3B8" class="st0" cx="37" cy="37" r="37"/>
            </g>
            <g id="Слой_2">
                <g>
                    <g>
                        <path fill="#ffffff" class="st1" d="M51.5,34l-0.6,0v9.4h0.6c0.9,0,1.6-0.7,1.6-1.6v-6.3C53,34.7,52.3,34,51.5,34z M21,35.6v6.1
                            c0,0.9,0.7,1.7,1.6,1.7h0.6V34l-0.6,0C21.7,34,21,34.7,21,35.6z M49.4,35.3c0-0.7-0.1-1.4-0.2-2.1c0-0.2-0.1-0.5-0.2-0.7v-1.8
                            c0-6.8-5.4-12.3-12-12.3S25,24,25,30.8v1.2c-0.1,0.2-0.1,0.3-0.2,0.5c-0.2,0.9-0.4,1.9-0.4,2.8v11.6c0,0.5,0.4,0.8,0.8,0.8h2.5
                            c0.8,4.4,4.7,7.8,9.3,7.8c3.6,0,6.8-2.1,8.4-5.2c2.7-0.2,4.9-2.5,4.9-5.3h-0.9V35.3z M43.9,47.9h-5.9c-0.7,0-1.2,0.6-1.2,1.2
                            c0,0.7,0.5,1.2,1.2,1.2h4.6C41.3,52,39.3,53,37.1,53c-3.9,0-7-3.2-7-7.2V38c0.9-0.6,2.5-1.7,3.6-3.2c1.7,1.4,5.1,3.5,10.5,3.7
                            v7.3h0C44.1,46.5,44,47.2,43.9,47.9z M38.8,24.4h-3.6c-2.7,0-5.2,1-7,2.7C29.5,23.5,33,21,37,21c4.1,0,7.7,2.7,9,6.4
                            C44.2,25.6,41.6,24.4,38.8,24.4z M34.6,40.3h-1.9c-0.7,0-1.2,0.6-1.2,1.2c0,0.7,0.5,1.2,1.2,1.2h1.9c0.7,0,1.2-0.6,1.2-1.2
                            C35.8,40.9,35.2,40.3,34.6,40.3z M41.4,40.3h-1.9c-0.7,0-1.2,0.6-1.2,1.2c0,0.7,0.5,1.2,1.2,1.2h1.9c0.7,0,1.2-0.6,1.2-1.2
                            C42.6,40.9,42,40.3,41.4,40.3z"/>
                    </g>
                </g>
            </g>
        </g>
    </symbol>

<symbol id="step_06" viewBox="0 0 74 74">
        <g>
            <g id="Слой_1">
	            <circle fill="#2CD3B8" class="st0" cx="37" cy="37" r="37"/>
            </g>
            <g id="Слой_2">
                <g>
                    <g>
                        <path fill="#ffffff" class="st1" d="M41.6,49h-3.4v-3h-2.4v3h-3.4c-0.7,0-1.2,0.6-1.2,1.2c0,0.7,0.5,1.2,1.2,1.2h9.2c0.7,0,1.2-0.6,1.2-1.2
                            C42.8,49.6,42.3,49,41.6,49z M21,42v1.5c0,0.5,0.4,1,1,1H52c0.5,0,1-0.4,1-1V42H21z M37,26.7c2.6,0,5,0.7,7.1,2l0.8-1.1
                            c0.3-0.4,0.8-0.4,1.1-0.2c0.4,0.3,0.4,0.8,0.2,1.1l-0.8,1.1c3.2,2.5,5.2,6.3,5.3,10.7H53V23.5c0-0.5-0.4-1-1-1H22
                            c-0.5,0-1,0.4-1,1v16.9h2.3C23.4,32.8,29.5,26.7,37,26.7z M44,39.8c-0.1-0.1-0.1-0.2-0.1-0.3c-0.3-1.8-1.2-3.3-2.5-4.3L39,38.5
                            c0.4,0.3,0.7,0.8,0.9,1.3H44z M37,37.8c0.2,0,0.3,0,0.5,0l2.6-3.5c-0.9-0.5-2-0.7-3.1-0.7c-2,0-3.8,0.8-5.1,2.2c0,0,0,0,0,0
                            c0,0.1-0.1,0.1-0.1,0.2c-0.8,1-1.4,2.2-1.6,3.5c0,0.1-0.1,0.2-0.1,0.3h4.1C34.5,38.6,35.7,37.8,37,37.8z M49.1,39.8
                            c-0.2-3.6-2-6.7-4.6-8.8l-2.1,2.9c0.1,0.1,0.1,0.1,0.2,0.2c1.5,1.3,2.6,3.2,2.9,5.2c0,0.2,0,0.4-0.1,0.6H49.1z M27.2,33.4
                            C27.2,33.4,27.2,33.4,27.2,33.4c-1.3,1.8-2.2,4-2.3,6.4h3.7c-0.1-0.2-0.2-0.4-0.1-0.6c0.2-1.3,0.8-2.6,1.6-3.7L27.2,33.4z
                            M31.4,34c1.4-1.2,3-1.9,4.8-2v-3.6c-3.1,0.2-5.9,1.6-7.9,3.7l2.9,2.1C31.2,34.2,31.3,34.1,31.4,34z M43.1,30.1
                            c-1.6-0.9-3.4-1.5-5.3-1.6V32c1.1,0.1,2.2,0.4,3.2,1L43.1,30.1z"/>
                    </g>
                </g>
            </g>
        </g>
    </symbol>


    <!-- Icon Social -->
    <symbol id="social" viewBox="0 0 40 40">
        <g>
            <path class="st0" fill="#3B4269" d="M20,0C9,0,0,9,0,20c0,11,9,20,20,20s20-9,20-20C40,9,31,0,20,0z M17.8,20c0,0.4-0.1,0.8-0.2,1.2l5.6,2.7
                c0.6-0.7,1.6-1.1,2.6-1.1c1.9,0,3.5,1.6,3.5,3.5c0,1.9-1.6,3.5-3.5,3.5c-1.9,0-3.5-1.6-3.5-3.5c0-0.2,0-0.4,0-0.5l-5.9-2.9
                c-0.6,0.4-1.3,0.7-2.1,0.7c-1.9,0-3.5-1.6-3.5-3.5c0-1.9,1.6-3.5,3.5-3.5c0.8,0,1.5,0.3,2.1,0.7l5.9-2.9c0-0.2,0-0.4,0-0.5
                c0-1.9,1.6-3.5,3.5-3.5c1.9,0,3.5,1.6,3.5,3.5c0,1.9-1.6,3.5-3.5,3.5c-1,0-1.9-0.4-2.6-1.1l-5.6,2.7C17.7,19.2,17.8,19.6,17.8,20z"
                />
        </g>
    </symbol>

    <!-- Icon Message -->
    <symbol id="msn" viewBox="0 0 40 40">
        <g>
	        <path class="st0" fill="#3DD3A1" d="M20.3,0C9.5,0,0.7,8.8,0.7,19.7c0,3.4,0.9,6.8,2.6,9.8L0,39.1c-0.1,0.2,0,0.5,0.1,0.7C0.3,39.9,0.5,40,0.7,40
            c0.1,0,0.1,0,0.2,0l10.6-2.8c2.8,1.4,5.8,2.1,8.9,2.1c10.8,0,19.7-8.8,19.7-19.7C40,8.8,31.2,0,20.3,0"/>
        </g>
        <g>
            <path class="st1" fill="#FFFFFF" d="M13.6,19.7c0,1.4-1.2,2.6-2.6,2.6c-1.4,0-2.6-1.2-2.6-2.6c0-1.4,1.2-2.6,2.6-2.6C12.4,17,13.6,18.2,13.6,19.7"
                />
            <path class="st1" fill="#FFFFFF" d="M22.9,19.7c0,1.4-1.2,2.6-2.6,2.6c-1.4,0-2.6-1.2-2.6-2.6c0-1.4,1.2-2.6,2.6-2.6C21.8,17,22.9,18.2,22.9,19.7"
                />
            <path class="st1" fill="#FFFFFF" d="M32.3,19.7c0,1.4-1.2,2.6-2.6,2.6c-1.4,0-2.6-1.2-2.6-2.6c0-1.4,1.2-2.6,2.6-2.6C31.2,17,32.3,18.2,32.3,19.7"
                />
        </g>
    </symbol>

    <!-- Icon Bot -->
    <symbol id="bot" viewBox="0 0 40 40">
        <g>
            <path class="st0" fill="#6AACCE" d="M40,20c0,11-9,20-20,20C9,40,0,31,0,20C0,9,9,0,20,0C31,0,40,9,40,20"/>
            <path class="st1" fill="#FFFFFF" d="M30.3,17.3h-0.8v-1.1c0-1.7-1.4-3.1-3.2-3.1h-5.2v-2.6c0.7-0.4,1.1-1.1,1.1-2c0-1.3-1-2.3-2.3-2.3
                c-1.3,0-2.3,1-2.3,2.3c0,0.8,0.5,1.6,1.1,2V13h-5.2c-1.7,0-3.1,1.4-3.1,3.1v1.1H9.7c-1,0-1.8,0.8-1.8,1.8v3.8c0,1,0.8,1.8,1.8,1.8
                h0.8v1.1c0,1.7,1.4,3.1,3.1,3.1h1.5v1.7c0,1,0.8,1.8,1.8,1.8h6.1c1,0,1.8-0.8,1.8-1.8v-1.7h1.5c1.7,0,3.2-1.4,3.2-3.1v-1.1h0.8
                c1,0,1.8-0.8,1.8-1.8v-3.8C32,18.1,31.2,17.3,30.3,17.3 M13.1,18.5c0-1.2,0.9-2.1,2.1-2.1c1.2,0,2.1,0.9,2.1,2.1
                c0,1.2-0.9,2.1-2.1,2.1C14,20.6,13.1,19.6,13.1,18.5 M22.8,26.1h-5.7c-0.9,0-1.7-0.8-1.7-1.7c0-0.9,0.8-1.7,1.7-1.7h5.7
                c0.9,0,1.7,0.8,1.7,1.7C24.6,25.3,23.8,26.1,22.8,26.1 M24.8,20.6c-1.2,0-2.1-0.9-2.1-2.1c0-1.2,0.9-2.1,2.1-2.1
                c1.2,0,2.1,0.9,2.1,2.1C26.9,19.6,26,20.6,24.8,20.6"/>
        </g>
    </symbol>

    <!-- Icon Feedback -->
    <symbol id="feedback" viewBox="0 0 40 40">
        <g>
            <path class="st0" fill="#DAB81A" d="M20,0C9,0,0,9,0,20c0,11,9,20,20,20s20-9,20-20C40,9,31,0,20,0z M12.5,13.7H24l-0.1-0.1
                c-0.6-0.6-0.6-1.5,0-2.1c0.6-0.6,1.5-0.6,2,0l2.7,2.7c0,0,0,0,0,0c0,0,0,0,0,0c0,0,0,0,0,0c0,0,0,0,0,0c0,0,0,0,0,0.1l0,0
                c0,0,0,0,0,0c0.1,0.1,0.2,0.3,0.3,0.4c0.1,0.2,0.1,0.4,0.1,0.6c0,0,0,0.1,0,0.1v0c0,0,0,0,0,0c0,0.1,0,0.2,0,0.3v0
                c-0.1,0.2-0.2,0.4-0.4,0.6c0,0,0,0,0,0l-2.7,2.7c-0.3,0.3-0.6,0.4-1,0.4c-0.4,0-0.7-0.2-1-0.4c-0.6-0.6-0.5-1.5,0-2.1l0.1-0.2
                H12.5c-0.8,0-1.4-0.7-1.4-1.5C11,14.3,11.7,13.7,12.5,13.7z M27.6,26.3H16l0.1,0.2c0.6,0.6,0.6,1.5,0,2.1c-0.3,0.3-0.7,0.4-1,0.4
                c-0.4,0-0.7-0.1-1-0.4l-2.7-2.7c0,0,0,0-0.1,0c-0.2-0.2-0.3-0.4-0.4-0.6c0,0,0,0,0,0c0,0,0,0,0,0c0-0.1-0.1-0.2-0.1-0.4v0
                c0-0.2,0.1-0.3,0.1-0.5c0.1-0.2,0.2-0.4,0.4-0.5c0,0,0,0,0,0l2.7-2.7c0.6-0.6,1.5-0.6,2,0c0.6,0.6,0.5,1.5,0,2.1L16,23.4h11.5
                c0.8,0,1.4,0.7,1.4,1.5C29,25.6,28.4,26.3,27.6,26.3z"/>
	    </g>
    </symbol>

    <!-- Icon Yandex -->
    <symbol id="yandex" viewBox="0 0 40 40">
        <g>
            <defs>
                <path id="SVGID_1_" d="M9.3,30.2c-3-1.8-3.5-2.6-3.5-6.1V17c0-0.5,0.1-0.7,0.3-1.1c0.3-0.6,1-0.9,1.6-0.9c0.3,0,0.6,0.1,0.9,0.2
                    l5.7,3.3c1.7,1,2.9,3.1,3.1,5.4l0,10.1c0,0.3-0.2,0.5-0.5,0.5c-0.1,0-0.2,0-0.2-0.1l0,0L9.3,30.2z M34.1,15.2
                    c0,0.1,0.1,0.2,0.1,0.2l0,0l0,8.7c-0.1,3.7-0.6,4.4-4.1,6.4l-5.8,3.4c-0.4,0.2-0.7,0.3-1.1,0.3c-0.7,0-1.3-0.4-1.6-0.9
                    c-0.2-0.3-0.3-0.6-0.3-0.9v-6.7c0-2,1.3-4.2,3.2-5.5l8.9-5.1v0C33.7,14.9,34,14.9,34.1,15.2 M17.8,16.1l-9-5.1
                    c-0.2-0.1-0.3-0.4-0.2-0.7c0-0.1,0.1-0.1,0.2-0.2v0l7.6-4.4C19.7,4,20.6,4,24.1,6l5.8,3.3c0.4,0.2,0.6,0.4,0.8,0.8
                    c0.3,0.6,0.3,1.3,0,1.9c-0.2,0.3-0.4,0.5-0.7,0.7l-5.8,3.4c-0.9,0.5-1.9,0.8-3.1,0.8C20,16.9,18.9,16.6,17.8,16.1 M20,0
                    c-1.3,0-2.6,0.3-3.7,1L5.6,7.3C3.4,8.6,2,11,2,13.6v12.8c0,2.6,1.4,5,3.6,6.3L16.3,39c1.1,0.7,2.4,1,3.7,1H20c1.3,0,2.6-0.3,3.7-1
                    l10.7-6.3c2.2-1.3,3.6-3.7,3.6-6.3V13.6c0-2.6-1.4-5-3.6-6.3L23.7,1C22.6,0.3,21.3,0,20,0z"/>
            </defs>
	
	        <polygon class="st0" fill="url(#SVGID_3_)" points="2.1,41.9 39.7,39.9 37.9,-1.9 0.3,0.1 	"/>
        </g>
    </symbol>

    <defs>
        <linearGradient id="SVGID_3_" gradientUnits="userSpaceOnUse" x1="-87.0856" y1="140" x2="-86.9189" y2="140" gradientTransform="matrix(219.5379 -11.5055 10.3552 243.9254 17670.5703 -35130.5586)">
            <stop  offset="0" style="stop-color:#6F00F9"/>
            <stop  offset="1" style="stop-color:#69BAC0"/>
        </linearGradient>
        
    </defs>
    <!-- Icon Mail -->
    <symbol id="mail" viewBox="0 0 40 40">
        <g>
            <defs>
                <rect id="SVGID_1_" width="40" height="40"/>
            </defs>
            
            <path class="st0" fill="#7296CD" d="M20,0c11,0,20,9,20,20s-9,20-20,20S0,31,0,20S9,0,20,0"/>
            <polygon class="st1"  fill="#FFFFFF" points="6.9,12.2 6.9,27.8 14.5,20 "/>
            <polygon class="st1" fill="#FFFFFF" points="33.1,12.2 33.1,27.8 25.6,20 "/>
            <path class="st1" fill="#FFFFFF" d="M7.5,11.5h25l-9.8,10.2C22,22.5,21,22.9,20,22.9c-1,0-2-0.4-2.7-1.1L7.5,11.5z"/>
            <path class="st1" fill="#FFFFFF" d="M23.2,22.3c-0.8,0.9-2,1.4-3.2,1.4c-1.2,0-2.4-0.5-3.2-1.4l-1.7-1.7l-7.6,7.9h25l-7.6-7.9L23.2,22.3z"/>
        </g>
    </symbol>

    <!-- Icon App -->
    <symbol id="app" viewBox="0 0 40 40">
        <g>
            <g>
                <defs>
                    <rect id="SVGID_1_" y="0" width="40" height="40"/>
                </defs>
            
                <path class="st0" fill="#97BA33" d="M20.3,0C9.5,0,0.7,8.8,0.7,19.7c0,3.4,0.9,6.8,2.6,9.8L0,39.1c-0.1,0.2,0,0.5,0.1,0.7C0.3,39.9,0.5,40,0.7,40
                    c0.1,0,0.1,0,0.2,0l10.6-2.8c2.8,1.4,5.8,2.1,8.9,2.1c10.8,0,19.7-8.8,19.7-19.7C40,8.8,31.2,0,20.3,0"/>
            </g>
            <g>
                <defs>
                    <rect id="SVGID_3_" y="0" width="40" height="40"/>
                </defs>
                <path class="st1" fill="#FFFFFF" d="M24.9,7.8h-9.1c-1.4,0-2.5,1.1-2.5,2.5v18c0,1.4,1.1,2.5,2.5,2.5h9.1c1.4,0,2.5-1.1,2.5-2.5v-18
                    C27.4,8.9,26.3,7.8,24.9,7.8 M20.4,29.9c-0.8,0-1.4-0.6-1.4-1.4c0-0.8,0.6-1.4,1.4-1.4c0.8,0,1.4,0.6,1.4,1.4
                    C21.8,29.3,21.2,29.9,20.4,29.9 M25.1,25.2c0,0.4-0.4,0.8-0.8,0.8h-7.9c-0.4,0-0.8-0.3-0.8-0.8V10.2c0-0.4,0.4-0.8,0.8-0.8h7.9
                    c0.4,0,0.8,0.3,0.8,0.8V25.2z"/>
            </g>
        </g>   
    </symbol>

    <!-- FOOTER -->

    <!-- Icon Phone Call -->
    <symbol id="call" viewBox="0 0 512 512">
        <g>
            <path fill="#68cdbc" d="M436.992,74.953c-99.989-99.959-262.08-99.935-362.039,0.055s-99.935,262.08,0.055,362.039s262.08,99.935,362.039-0.055
                c48.006-48.021,74.968-113.146,74.953-181.047C511.986,188.055,485.005,122.951,436.992,74.953z M387.703,356.605
                c-0.011,0.011-0.022,0.023-0.034,0.034v-0.085l-12.971,12.885c-16.775,16.987-41.206,23.976-64.427,18.432
                c-23.395-6.262-45.635-16.23-65.877-29.525c-18.806-12.019-36.234-26.069-51.968-41.899
                c-14.477-14.371-27.483-30.151-38.827-47.104c-12.408-18.242-22.229-38.114-29.184-59.051
                c-7.973-24.596-1.366-51.585,17.067-69.717l15.189-15.189c4.223-4.242,11.085-4.257,15.326-0.034
                c0.011,0.011,0.023,0.022,0.034,0.034l47.957,47.957c4.242,4.223,4.257,11.085,0.034,15.326c-0.011,0.011-0.022,0.022-0.034,0.034
                l-28.16,28.16c-8.08,7.992-9.096,20.692-2.389,29.867c10.185,13.978,21.456,27.131,33.707,39.339
                c13.659,13.718,28.508,26.197,44.373,37.291c9.167,6.394,21.595,5.316,29.525-2.56l27.221-27.648
                c4.223-4.242,11.085-4.257,15.326-0.034c0.011,0.011,0.022,0.022,0.034,0.034l48.043,48.128
                C391.911,345.502,391.926,352.363,387.703,356.605z"/>
	    </g>
    </symbol>

    <!-- Icon VK -->
    <symbol id="vk" viewBox="0 0 24 24">
        <g>
            <path fill="#adb0c2" d="m19.915 13.028c-.388-.49-.277-.708 0-1.146.005-.005 3.208-4.431 3.538-5.932l.002-.001c.164-.547 0-.949-.793-.949h-2.624c-.668 0-.976.345-1.141.731 0 0-1.336 3.198-3.226 5.271-.61.599-.892.791-1.225.791-.164 0-.419-.192-.419-.739v-5.105c0-.656-.187-.949-.74-.949h-4.126c-.419 0-.668.306-.668.591 0 .622.945.765 1.043 2.515v3.797c0 .832-.151.985-.486.985-.892 0-3.057-3.211-4.34-6.886-.259-.713-.512-1.001-1.185-1.001h-2.625c-.749 0-.9.345-.9.731 0 .682.892 4.073 4.148 8.553 2.17 3.058 5.226 4.715 8.006 4.715 1.671 0 1.875-.368 1.875-1.001 0-2.922-.151-3.198.686-3.198.388 0 1.056.192 2.616 1.667 1.783 1.749 2.076 2.532 3.074 2.532h2.624c.748 0 1.127-.368.909-1.094-.499-1.527-3.871-4.668-4.023-4.878z"/>
	    </g>
    </symbol>
    
    <!-- Icon FB -->
    <symbol id="fb" viewBox="0 0 24 24">
        <g>
            <path fill="#adb0c2" d="m15.997 3.985h2.191v-3.816c-.378-.052-1.678-.169-3.192-.169-3.159 0-5.323 1.987-5.323 5.639v3.361h-3.486v4.266h3.486v10.734h4.274v-10.733h3.345l.531-4.266h-3.877v-2.939c.001-1.233.333-2.077 2.051-2.077z"/>
	    </g>
    </symbol>

    <!-- Icon Twitter -->
    <symbol id="twitter" viewBox="0 0 512 512">
        <g>
            <path fill="#adb0c2" d="M512,97.248c-19.04,8.352-39.328,13.888-60.48,16.576c21.76-12.992,38.368-33.408,46.176-58.016
                c-20.288,12.096-42.688,20.64-66.56,25.408C411.872,60.704,384.416,48,354.464,48c-58.112,0-104.896,47.168-104.896,104.992
                c0,8.32,0.704,16.32,2.432,23.936c-87.264-4.256-164.48-46.08-216.352-109.792c-9.056,15.712-14.368,33.696-14.368,53.056
                c0,36.352,18.72,68.576,46.624,87.232c-16.864-0.32-33.408-5.216-47.424-12.928c0,0.32,0,0.736,0,1.152
                c0,51.008,36.384,93.376,84.096,103.136c-8.544,2.336-17.856,3.456-27.52,3.456c-6.72,0-13.504-0.384-19.872-1.792
                c13.6,41.568,52.192,72.128,98.08,73.12c-35.712,27.936-81.056,44.768-130.144,44.768c-8.608,0-16.864-0.384-25.12-1.44
                C46.496,446.88,101.6,464,161.024,464c193.152,0,298.752-160,298.752-298.688c0-4.64-0.16-9.12-0.384-13.568
                C480.224,136.96,497.728,118.496,512,97.248z"/>
	    </g>
    </symbol>

    <!-- Icon Skype -->
    <symbol id="skype" viewBox="0 0 24 24">
        <g>
           <path fill="#adb0c2" d="m23.309 14.547c1.738-7.81-5.104-14.905-13.139-13.543-4.362-2.707-10.17.352-10.17 5.542 0 1.207.333 2.337.912 3.311-1.615 7.828 5.283 14.821 13.311 13.366 5.675 3.001 11.946-2.984 9.086-8.676zm-7.638 4.71c-2.108.867-5.577.872-7.676-.227-2.993-1.596-3.525-5.189-.943-5.189 1.946 0 1.33 2.269 3.295 3.194.902.417 2.841.46 3.968-.3 1.113-.745 1.011-1.917.406-2.477-1.603-1.48-6.19-.892-8.287-3.483-.911-1.124-1.083-3.107.037-4.545 1.952-2.512 7.68-2.665 10.143-.768 2.274 1.76 1.66 4.096-.175 4.096-2.207 0-1.047-2.888-4.61-2.888-2.583 0-3.599 1.837-1.78 2.731 2.466 1.225 8.75.816 8.75 5.603-.005 1.992-1.226 3.477-3.128 4.253z"/>
	    </g>
    </symbol>

     <!-- Icon Menu -->
    <symbol id="menu" viewBox="0 0 612 612">
        <g>
			<path d="M0,95.625v38.25h612v-38.25H0z M0,325.125h612v-38.25H0V325.125z M0,516.375h612v-38.25H0V516.375z"/>
		</g>
    </symbol>
</svg>